# xmcd
#
# Track frame offsets:
#	150
#	14211
#	27787
#	46846
#	59438
#	73400
#	91403
#	104515
#	118197
#	130155
#	144261
#	158179
#	174741
#	187552
#	201518
#	216429
#	229387
#	246042
#	263436
#	276477
#	290014
#
# Disc length: 4067 seconds
#
# Revision: 2
# Processed by: cddbd v1.5.2PL0 Copyright (c) Steve Scherf et al.
# Submitted via: dBpowerAMP V4.0
#
DISCID=480fe115
DTITLE=Various Artist - Hott Country # 269 Canada
DYEAR=2018
DGENRE=Country
TTITLE0=Little Big Town - Summer Fever
TTITLE1=Kane Brown - Lose It
TTITLE2=Darius Rucker ft. Jason Aldean, Luke Bryan and Charles Kelley - Straight To Hell
TTITLE3=Jess Moskaluke - Camouflage
TTITLE4=Brett Eldredge - Love Someone
TTITLE5=Dierks Bentley ft. Brothers Osborne - Burning Man
TTITLE6=Cold Creek County ft. Mitchell Tenpenny - Money
TTITLE7=Houston Bernard Band - We Made Out
TTITLE8=Carlton Anderson - Drop Everything
TTITLE9=Drew Gregory - Know Good
TTITLE10=Luke Combs - She Got The Best Of Me
TTITLE11=Michael Ray - One That Got Away
TTITLE12=Everette - Slow Roll
TTITLE13=Garth Brooks - All Day Long
TTITLE14=Lee Brice - Rumor
TTITLE15=Chance McKinney - Take It Back
TTITLE16=Shenandoah - That's Where I Grew Up
TTITLE17=Justin Tyler - First Time
TTITLE18=Blackjack Billy - Straight Line Sober
TTITLE19=Dean Young - Last Man Standing
TTITLE20=Southern Halo - Anything Is Possible
EXTD=
EXTT0=
EXTT1=
EXTT2=
EXTT3=
EXTT4=
EXTT5=
EXTT6=
EXTT7=
EXTT8=
EXTT9=
EXTT10=
EXTT11=
EXTT12=
EXTT13=
EXTT14=
EXTT15=
EXTT16=
EXTT17=
EXTT18=
EXTT19=
EXTT20=
PLAYORDER=
